<svg id="Layer_1" data-name="Layer 1" xmlns="http://www.w3.org/2000/svg" viewBox="0 0 900 300"><defs><style>.cls-1{fill:#bf0a30;}.cls-2{fill:#f0f;}.cls-3{fill:#fed700;}</style></defs><title>arizona_flag_header</title><path class="cls-1" d="M0,0H900V300H0Z" transform="translate(0 0)"/><path class="cls-2" d="M0,195.33,450,300,0,70.32Z" transform="translate(0 0)"/><path id="a" class="cls-3" d="M0,195.33,450,300,0,70.32Z" transform="translate(0 0)"/><path id="b" class="cls-3" d="M103.14,0,450,300,232.83,0Z" transform="translate(0 0)"/><path id="c" class="cls-3" d="M332.82,0,450,300,407.79,0Z" transform="translate(0 0)"/><path id="a-2" data-name="a" class="cls-3" d="M900,195.33,450,300,900,70.32Z" transform="translate(0 0)"/><path id="b-2" data-name="b" class="cls-3" d="M796.86,0,450,300,667.17,0Z" transform="translate(0 0)"/><path id="c-2" data-name="c" class="cls-3" d="M567.18,0,450,300,492.21,0Z" transform="translate(0 0)"/></svg>